<mxfile host="app.diagrams.net" agent="Mozilla/5.0 (X11; Linux x86_64; rv:132.0) Gecko/20100101 Firefox/132.0" version="24.8.6">
  <diagram name="Page-1" id="UBjkGbZET5Lv1JTolCky">
    <mxGraphModel dx="269" dy="426" grid="1" gridSize="10" guides="1" tooltips="1" connect="1" arrows="1" fold="1" page="1" pageScale="1" pageWidth="850" pageHeight="1100" math="0" shadow="0">
      <root>
        <mxCell id="0" />
        <mxCell id="1" parent="0" />
        <mxCell id="RO7NXUbX2Oa07JmIQVYZ-1" value="" style="shape=mxgraph.cisco.switches.workgroup_switch;sketch=0;html=1;pointerEvents=1;dashed=0;fillColor=#036897;strokeColor=#ffffff;strokeWidth=2;verticalLabelPosition=bottom;verticalAlign=top;align=center;outlineConnect=0;" parent="1" vertex="1">
          <mxGeometry x="375" y="270" width="101" height="50" as="geometry" />
        </mxCell>
        <mxCell id="RO7NXUbX2Oa07JmIQVYZ-2" value="" style="shape=mxgraph.cisco.routers.router;sketch=0;html=1;pointerEvents=1;dashed=0;fillColor=#036897;strokeColor=#ffffff;strokeWidth=2;verticalLabelPosition=bottom;verticalAlign=top;align=center;outlineConnect=0;" parent="1" vertex="1">
          <mxGeometry x="386.5" y="590" width="78" height="53" as="geometry" />
        </mxCell>
        <mxCell id="RO7NXUbX2Oa07JmIQVYZ-3" value="" style="shape=mxgraph.cisco.security.firewall;sketch=0;html=1;pointerEvents=1;dashed=0;fillColor=#036897;strokeColor=#ffffff;strokeWidth=2;verticalLabelPosition=bottom;verticalAlign=top;align=center;outlineConnect=0;" parent="1" vertex="1">
          <mxGeometry x="411" y="490" width="29" height="67" as="geometry" />
        </mxCell>
        <mxCell id="RO7NXUbX2Oa07JmIQVYZ-4" value="" style="shape=mxgraph.cisco.computers_and_peripherals.terminal;sketch=0;html=1;pointerEvents=1;dashed=0;fillColor=#036897;strokeColor=#ffffff;strokeWidth=2;verticalLabelPosition=bottom;verticalAlign=top;align=center;outlineConnect=0;" parent="1" vertex="1">
          <mxGeometry x="230" y="316" width="61" height="54" as="geometry" />
        </mxCell>
        <mxCell id="RO7NXUbX2Oa07JmIQVYZ-5" style="edgeStyle=orthogonalEdgeStyle;rounded=0;orthogonalLoop=1;jettySize=auto;html=1;endArrow=none;endFill=0;fillColor=#d5e8d4;strokeColor=#82b366;strokeWidth=4;" parent="1" source="RO7NXUbX2Oa07JmIQVYZ-7" target="RO7NXUbX2Oa07JmIQVYZ-3" edge="1">
          <mxGeometry relative="1" as="geometry" />
        </mxCell>
        <mxCell id="RO7NXUbX2Oa07JmIQVYZ-6" value="&lt;pre&gt;VLAN C&lt;/pre&gt;" style="edgeLabel;html=1;align=center;verticalAlign=middle;resizable=0;points=[];labelBackgroundColor=none;" parent="RO7NXUbX2Oa07JmIQVYZ-5" vertex="1" connectable="0">
          <mxGeometry x="0.2517" relative="1" as="geometry">
            <mxPoint x="26" y="3" as="offset" />
          </mxGeometry>
        </mxCell>
        <mxCell id="RO7NXUbX2Oa07JmIQVYZ-7" value="" style="shape=mxgraph.cisco.switches.workgroup_switch;sketch=0;html=1;pointerEvents=1;dashed=0;fillColor=#036897;strokeColor=#ffffff;strokeWidth=2;verticalLabelPosition=bottom;verticalAlign=top;align=center;outlineConnect=0;" parent="1" vertex="1">
          <mxGeometry x="375" y="400" width="101" height="50" as="geometry" />
        </mxCell>
        <mxCell id="RO7NXUbX2Oa07JmIQVYZ-8" value="" style="shape=mxgraph.cisco.routers.router;sketch=0;html=1;pointerEvents=1;dashed=0;fillColor=#036897;strokeColor=#ffffff;strokeWidth=2;verticalLabelPosition=bottom;verticalAlign=top;align=center;outlineConnect=0;" parent="1" vertex="1">
          <mxGeometry x="502" y="680" width="78" height="53" as="geometry" />
        </mxCell>
        <mxCell id="RO7NXUbX2Oa07JmIQVYZ-9" value="" style="shape=mxgraph.cisco.routers.router;sketch=0;html=1;pointerEvents=1;dashed=0;fillColor=#036897;strokeColor=#ffffff;strokeWidth=2;verticalLabelPosition=bottom;verticalAlign=top;align=center;outlineConnect=0;" parent="1" vertex="1">
          <mxGeometry x="311" y="680" width="78" height="53" as="geometry" />
        </mxCell>
        <mxCell id="RO7NXUbX2Oa07JmIQVYZ-10" value="" style="shape=mxgraph.cisco.computers_and_peripherals.terminal;sketch=0;html=1;pointerEvents=1;dashed=0;fillColor=#036897;strokeColor=#ffffff;strokeWidth=2;verticalLabelPosition=bottom;verticalAlign=top;align=center;outlineConnect=0;" parent="1" vertex="1">
          <mxGeometry x="571" y="328" width="61" height="54" as="geometry" />
        </mxCell>
        <mxCell id="RO7NXUbX2Oa07JmIQVYZ-11" value="&lt;div&gt;&lt;br&gt;&lt;/div&gt;&lt;div&gt;&lt;br&gt;&lt;/div&gt;" style="shape=mxgraph.cisco.computers_and_peripherals.terminal;sketch=0;html=1;pointerEvents=1;dashed=0;fillColor=#036897;strokeColor=#ffffff;strokeWidth=2;verticalLabelPosition=bottom;verticalAlign=top;align=center;outlineConnect=0;" parent="1" vertex="1">
          <mxGeometry x="570" y="450" width="61" height="54" as="geometry" />
        </mxCell>
        <mxCell id="RO7NXUbX2Oa07JmIQVYZ-12" value="" style="shape=mxgraph.cisco.computers_and_peripherals.terminal;sketch=0;html=1;pointerEvents=1;dashed=0;fillColor=#036897;strokeColor=#ffffff;strokeWidth=2;verticalLabelPosition=bottom;verticalAlign=top;align=center;outlineConnect=0;" parent="1" vertex="1">
          <mxGeometry x="230" y="190" width="61" height="54" as="geometry" />
        </mxCell>
        <mxCell id="RO7NXUbX2Oa07JmIQVYZ-13" value="" style="endArrow=none;html=1;rounded=0;fillColor=#d5e8d4;strokeColor=#82B366;strokeWidth=4;entryX=0.5;entryY=1;entryDx=0;entryDy=0;entryPerimeter=0;" parent="1" source="RO7NXUbX2Oa07JmIQVYZ-1" target="RO7NXUbX2Oa07JmIQVYZ-31" edge="1">
          <mxGeometry width="50" height="50" relative="1" as="geometry">
            <mxPoint x="290" y="460" as="sourcePoint" />
            <mxPoint x="340" y="410" as="targetPoint" />
          </mxGeometry>
        </mxCell>
        <mxCell id="RO7NXUbX2Oa07JmIQVYZ-14" value="&lt;pre&gt;VLAN C&lt;/pre&gt;" style="edgeLabel;html=1;align=center;verticalAlign=middle;resizable=0;points=[];labelBackgroundColor=none;" parent="RO7NXUbX2Oa07JmIQVYZ-13" vertex="1" connectable="0">
          <mxGeometry x="-0.0574" y="1" relative="1" as="geometry">
            <mxPoint x="31" y="2" as="offset" />
          </mxGeometry>
        </mxCell>
        <mxCell id="RO7NXUbX2Oa07JmIQVYZ-15" value="" style="endArrow=none;html=1;rounded=0;fillColor=#dae8fc;strokeColor=#6c8ebf;strokeWidth=4;entryX=0;entryY=0.98;entryDx=0;entryDy=0;entryPerimeter=0;exitX=1;exitY=0.5;exitDx=0;exitDy=0;exitPerimeter=0;" parent="1" source="RO7NXUbX2Oa07JmIQVYZ-4" target="RO7NXUbX2Oa07JmIQVYZ-1" edge="1">
          <mxGeometry width="50" height="50" relative="1" as="geometry">
            <mxPoint x="330" y="350" as="sourcePoint" />
            <mxPoint x="380" y="300" as="targetPoint" />
          </mxGeometry>
        </mxCell>
        <mxCell id="RO7NXUbX2Oa07JmIQVYZ-16" value="&lt;pre&gt;VLAN B&lt;/pre&gt;" style="edgeLabel;html=1;align=center;verticalAlign=middle;resizable=0;points=[];labelBackgroundColor=none;" parent="RO7NXUbX2Oa07JmIQVYZ-15" vertex="1" connectable="0">
          <mxGeometry x="-0.0929" y="-2" relative="1" as="geometry">
            <mxPoint x="22" y="-26" as="offset" />
          </mxGeometry>
        </mxCell>
        <mxCell id="RO7NXUbX2Oa07JmIQVYZ-17" value="" style="endArrow=none;html=1;rounded=0;strokeWidth=4;fillColor=#f8cecc;strokeColor=#b85450;exitX=0.16;exitY=0.23;exitDx=0;exitDy=0;exitPerimeter=0;entryX=0.91;entryY=0.92;entryDx=0;entryDy=0;entryPerimeter=0;" parent="1" source="RO7NXUbX2Oa07JmIQVYZ-1" target="RO7NXUbX2Oa07JmIQVYZ-12" edge="1">
          <mxGeometry width="50" height="50" relative="1" as="geometry">
            <mxPoint x="240" y="270" as="sourcePoint" />
            <mxPoint x="290" y="220" as="targetPoint" />
          </mxGeometry>
        </mxCell>
        <mxCell id="RO7NXUbX2Oa07JmIQVYZ-18" value="&lt;pre style=&quot;line-height: 0%;&quot;&gt;VLAN A&lt;/pre&gt;" style="edgeLabel;html=1;align=center;verticalAlign=middle;resizable=0;points=[];labelBackgroundColor=none;" parent="RO7NXUbX2Oa07JmIQVYZ-17" vertex="1" connectable="0">
          <mxGeometry x="0.0231" y="-3" relative="1" as="geometry">
            <mxPoint x="13" y="-11" as="offset" />
          </mxGeometry>
        </mxCell>
        <mxCell id="RO7NXUbX2Oa07JmIQVYZ-19" value="" style="endArrow=none;html=1;rounded=0;strokeWidth=8;" parent="1" source="RO7NXUbX2Oa07JmIQVYZ-1" target="RO7NXUbX2Oa07JmIQVYZ-7" edge="1">
          <mxGeometry width="50" height="50" relative="1" as="geometry">
            <mxPoint x="510" y="350" as="sourcePoint" />
            <mxPoint x="560" y="300" as="targetPoint" />
          </mxGeometry>
        </mxCell>
        <mxCell id="RO7NXUbX2Oa07JmIQVYZ-20" value="&lt;pre&gt;trunk&lt;/pre&gt;" style="edgeLabel;html=1;align=center;verticalAlign=middle;resizable=0;points=[];labelBackgroundColor=none;" parent="RO7NXUbX2Oa07JmIQVYZ-19" vertex="1" connectable="0">
          <mxGeometry x="-0.2103" y="2" relative="1" as="geometry">
            <mxPoint x="21" y="7" as="offset" />
          </mxGeometry>
        </mxCell>
        <mxCell id="RO7NXUbX2Oa07JmIQVYZ-21" value="" style="endArrow=none;html=1;rounded=0;fillColor=#f8cecc;strokeColor=#b85450;strokeWidth=4;entryX=0.15;entryY=0.5;entryDx=0;entryDy=0;entryPerimeter=0;" parent="1" source="RO7NXUbX2Oa07JmIQVYZ-7" target="RO7NXUbX2Oa07JmIQVYZ-10" edge="1">
          <mxGeometry width="50" height="50" relative="1" as="geometry">
            <mxPoint x="490" y="440" as="sourcePoint" />
            <mxPoint x="540" y="390" as="targetPoint" />
          </mxGeometry>
        </mxCell>
        <mxCell id="RO7NXUbX2Oa07JmIQVYZ-22" value="" style="endArrow=none;html=1;rounded=0;fillColor=#dae8fc;strokeColor=#6c8ebf;strokeWidth=4;exitX=0.87;exitY=0.74;exitDx=0;exitDy=0;exitPerimeter=0;entryX=0.15;entryY=0.5;entryDx=0;entryDy=0;entryPerimeter=0;" parent="1" source="RO7NXUbX2Oa07JmIQVYZ-7" target="RO7NXUbX2Oa07JmIQVYZ-11" edge="1">
          <mxGeometry width="50" height="50" relative="1" as="geometry">
            <mxPoint x="530" y="480" as="sourcePoint" />
            <mxPoint x="580" y="430" as="targetPoint" />
          </mxGeometry>
        </mxCell>
        <mxCell id="RO7NXUbX2Oa07JmIQVYZ-23" value="" style="endArrow=none;html=1;rounded=0;fillColor=#fff2cc;strokeColor=#d6b656;strokeWidth=8;exitX=0.88;exitY=0.1;exitDx=0;exitDy=0;exitPerimeter=0;entryX=0.12;entryY=0.9;entryDx=0;entryDy=0;entryPerimeter=0;" parent="1" source="RO7NXUbX2Oa07JmIQVYZ-9" target="RO7NXUbX2Oa07JmIQVYZ-2" edge="1">
          <mxGeometry width="50" height="50" relative="1" as="geometry">
            <mxPoint x="310" y="700" as="sourcePoint" />
            <mxPoint x="360" y="650" as="targetPoint" />
          </mxGeometry>
        </mxCell>
        <mxCell id="RO7NXUbX2Oa07JmIQVYZ-24" value="" style="endArrow=none;html=1;rounded=0;fillColor=#fff2cc;strokeColor=#d6b656;strokeWidth=8;entryX=0.88;entryY=0.9;entryDx=0;entryDy=0;entryPerimeter=0;exitX=0.12;exitY=0.1;exitDx=0;exitDy=0;exitPerimeter=0;" parent="1" source="RO7NXUbX2Oa07JmIQVYZ-8" target="RO7NXUbX2Oa07JmIQVYZ-2" edge="1">
          <mxGeometry width="50" height="50" relative="1" as="geometry">
            <mxPoint x="490" y="710" as="sourcePoint" />
            <mxPoint x="540" y="660" as="targetPoint" />
          </mxGeometry>
        </mxCell>
        <mxCell id="RO7NXUbX2Oa07JmIQVYZ-25" value="" style="endArrow=none;html=1;rounded=0;fillColor=#fff2cc;strokeColor=#d6b656;strokeWidth=8;" parent="1" source="RO7NXUbX2Oa07JmIQVYZ-9" target="RO7NXUbX2Oa07JmIQVYZ-8" edge="1">
          <mxGeometry width="50" height="50" relative="1" as="geometry">
            <mxPoint x="400" y="770" as="sourcePoint" />
            <mxPoint x="450" y="720" as="targetPoint" />
          </mxGeometry>
        </mxCell>
        <mxCell id="RO7NXUbX2Oa07JmIQVYZ-26" style="rounded=0;orthogonalLoop=1;jettySize=auto;html=1;entryX=1;entryY=0.5;entryDx=0;entryDy=0;entryPerimeter=0;endArrow=none;endFill=0;edgeStyle=orthogonalEdgeStyle;fillColor=#dae8fc;strokeColor=#6c8ebf;strokeWidth=4;exitX=0.98;exitY=0.5;exitDx=0;exitDy=0;exitPerimeter=0;" parent="1" source="RO7NXUbX2Oa07JmIQVYZ-1" target="RO7NXUbX2Oa07JmIQVYZ-8" edge="1">
          <mxGeometry relative="1" as="geometry">
            <Array as="points">
              <mxPoint x="670" y="295" />
              <mxPoint x="670" y="707" />
            </Array>
          </mxGeometry>
        </mxCell>
        <mxCell id="RO7NXUbX2Oa07JmIQVYZ-27" value="&lt;pre&gt;VLAN B&lt;/pre&gt;" style="edgeLabel;html=1;align=center;verticalAlign=middle;resizable=0;points=[];labelBackgroundColor=none;" parent="RO7NXUbX2Oa07JmIQVYZ-26" vertex="1" connectable="0">
          <mxGeometry x="0.2407" y="-1" relative="1" as="geometry">
            <mxPoint x="-28" y="-218" as="offset" />
          </mxGeometry>
        </mxCell>
        <mxCell id="RO7NXUbX2Oa07JmIQVYZ-28" style="edgeStyle=orthogonalEdgeStyle;rounded=0;orthogonalLoop=1;jettySize=auto;html=1;entryX=0;entryY=0.5;entryDx=0;entryDy=0;entryPerimeter=0;fillColor=#f8cecc;strokeColor=#b85450;endArrow=none;endFill=0;strokeWidth=4;" parent="1" source="RO7NXUbX2Oa07JmIQVYZ-7" target="RO7NXUbX2Oa07JmIQVYZ-9" edge="1">
          <mxGeometry relative="1" as="geometry">
            <Array as="points">
              <mxPoint x="230" y="425" />
              <mxPoint x="230" y="707" />
              <mxPoint x="311" y="707" />
            </Array>
          </mxGeometry>
        </mxCell>
        <mxCell id="RO7NXUbX2Oa07JmIQVYZ-29" value="&lt;pre&gt;VLAN A&lt;/pre&gt;" style="edgeLabel;html=1;align=center;verticalAlign=middle;resizable=0;points=[];labelBackgroundColor=none;" parent="RO7NXUbX2Oa07JmIQVYZ-28" vertex="1" connectable="0">
          <mxGeometry x="0.0711" y="2" relative="1" as="geometry">
            <mxPoint x="25" y="-113" as="offset" />
          </mxGeometry>
        </mxCell>
        <mxCell id="RO7NXUbX2Oa07JmIQVYZ-30" style="edgeStyle=orthogonalEdgeStyle;rounded=0;orthogonalLoop=1;jettySize=auto;html=1;entryX=0.5;entryY=0;entryDx=0;entryDy=0;entryPerimeter=0;endArrow=none;endFill=0;fillColor=#d5e8d4;strokeColor=#82b366;strokeWidth=4;" parent="1" source="RO7NXUbX2Oa07JmIQVYZ-3" target="RO7NXUbX2Oa07JmIQVYZ-2" edge="1">
          <mxGeometry relative="1" as="geometry" />
        </mxCell>
        <mxCell id="RO7NXUbX2Oa07JmIQVYZ-31" value="" style="shape=mxgraph.cisco.routers.router;sketch=0;html=1;pointerEvents=1;dashed=0;fillColor=#036897;strokeColor=#ffffff;strokeWidth=2;verticalLabelPosition=bottom;verticalAlign=top;align=center;outlineConnect=0;" parent="1" vertex="1">
          <mxGeometry x="386.5" y="130" width="78" height="53" as="geometry" />
        </mxCell>
        <mxCell id="RO7NXUbX2Oa07JmIQVYZ-32" value="&lt;pre&gt;PC1A&lt;/pre&gt;" style="text;html=1;align=center;verticalAlign=middle;whiteSpace=wrap;rounded=0;" parent="1" vertex="1">
          <mxGeometry x="230" y="244" width="60" height="30" as="geometry" />
        </mxCell>
        <mxCell id="RO7NXUbX2Oa07JmIQVYZ-33" value="&lt;pre&gt;PC1B&lt;/pre&gt;" style="text;html=1;align=center;verticalAlign=middle;whiteSpace=wrap;rounded=0;" parent="1" vertex="1">
          <mxGeometry x="230.5" y="365" width="60" height="30" as="geometry" />
        </mxCell>
        <mxCell id="RO7NXUbX2Oa07JmIQVYZ-34" value="&lt;p style=&quot;line-height: 120%;&quot;&gt;&lt;/p&gt;&lt;pre&gt;ISP&lt;/pre&gt;" style="text;html=1;align=center;verticalAlign=middle;whiteSpace=wrap;rounded=0;" parent="1" vertex="1">
          <mxGeometry x="450" y="141.5" width="60" height="30" as="geometry" />
        </mxCell>
        <mxCell id="RO7NXUbX2Oa07JmIQVYZ-35" value="&lt;pre&gt;SW1&lt;/pre&gt;" style="text;html=1;align=center;verticalAlign=middle;whiteSpace=wrap;rounded=0;" parent="1" vertex="1">
          <mxGeometry x="462" y="264" width="60" height="30" as="geometry" />
        </mxCell>
        <mxCell id="RO7NXUbX2Oa07JmIQVYZ-36" value="&lt;pre&gt;SW2&lt;/pre&gt;" style="text;html=1;align=center;verticalAlign=middle;whiteSpace=wrap;rounded=0;" parent="1" vertex="1">
          <mxGeometry x="360" y="378" width="60" height="30" as="geometry" />
        </mxCell>
        <mxCell id="RO7NXUbX2Oa07JmIQVYZ-37" value="&lt;pre&gt;PC2A&lt;br&gt;(DNS)&lt;br&gt;&lt;/pre&gt;" style="text;html=1;align=center;verticalAlign=middle;whiteSpace=wrap;rounded=0;" parent="1" vertex="1">
          <mxGeometry x="572" y="382" width="60" height="30" as="geometry" />
        </mxCell>
        <mxCell id="RO7NXUbX2Oa07JmIQVYZ-38" value="&lt;pre&gt;PC2B&lt;/pre&gt;" style="text;html=1;align=center;verticalAlign=middle;whiteSpace=wrap;rounded=0;" parent="1" vertex="1">
          <mxGeometry x="570" y="500" width="60" height="30" as="geometry" />
        </mxCell>
        <mxCell id="RO7NXUbX2Oa07JmIQVYZ-39" value="&lt;pre style=&quot;line-height: 0%;&quot;&gt;VLAN A&lt;/pre&gt;" style="edgeLabel;html=1;align=center;verticalAlign=middle;resizable=0;points=[];labelBackgroundColor=none;" parent="1" vertex="1" connectable="0">
          <mxGeometry x="501.00407195688695" y="369.9954147291655" as="geometry" />
        </mxCell>
        <mxCell id="RO7NXUbX2Oa07JmIQVYZ-40" value="&lt;pre&gt;VLAN B&lt;/pre&gt;" style="edgeLabel;html=1;align=center;verticalAlign=middle;resizable=0;points=[];labelBackgroundColor=none;" parent="1" vertex="1" connectable="0">
          <mxGeometry x="502.0021411177732" y="432.9972454647997" as="geometry" />
        </mxCell>
        <mxCell id="RO7NXUbX2Oa07JmIQVYZ-41" value="&lt;pre&gt;R1&lt;/pre&gt;" style="text;html=1;align=center;verticalAlign=middle;whiteSpace=wrap;rounded=0;" parent="1" vertex="1">
          <mxGeometry x="395.5" y="641" width="60" height="30" as="geometry" />
        </mxCell>
        <mxCell id="RO7NXUbX2Oa07JmIQVYZ-42" value="&lt;pre&gt;R3&lt;br&gt;&lt;/pre&gt;" style="text;html=1;align=center;verticalAlign=middle;whiteSpace=wrap;rounded=0;" parent="1" vertex="1">
          <mxGeometry x="320" y="730" width="60" height="30" as="geometry" />
        </mxCell>
        <mxCell id="RO7NXUbX2Oa07JmIQVYZ-43" value="&lt;pre&gt;R2&lt;br&gt;&lt;/pre&gt;" style="text;html=1;align=center;verticalAlign=middle;whiteSpace=wrap;rounded=0;" parent="1" vertex="1">
          <mxGeometry x="511" y="730" width="60" height="30" as="geometry" />
        </mxCell>
        <mxCell id="RO7NXUbX2Oa07JmIQVYZ-45" value="&lt;pre style=&quot;font-size: 11px;&quot;&gt;&lt;font style=&quot;font-size: 8px;&quot;&gt;10.0.0.1&lt;/font&gt;&lt;/pre&gt;" style="text;html=1;align=center;verticalAlign=middle;whiteSpace=wrap;rounded=0;" parent="1" vertex="1">
          <mxGeometry x="425" y="177" width="60" height="30" as="geometry" />
        </mxCell>
        <mxCell id="RO7NXUbX2Oa07JmIQVYZ-47" value="&lt;div align=&quot;left&quot;&gt;&lt;pre style=&quot;font-size: 8px;&quot;&gt;&lt;font style=&quot;font-size: 8px;&quot;&gt;202.206.129.253&lt;br&gt;&amp;lt;pre&amp;gt;:7001:ffff:ffff:ffff:ffff&lt;/font&gt;&lt;/pre&gt;&lt;/div&gt;" style="text;html=1;align=left;verticalAlign=middle;whiteSpace=wrap;rounded=0;" parent="1" vertex="1">
          <mxGeometry x="220" y="264" width="60" height="30" as="geometry" />
        </mxCell>
        <mxCell id="RO7NXUbX2Oa07JmIQVYZ-52" value="&lt;pre style=&quot;font-size: 10px;&quot;&gt;&lt;font style=&quot;font-size: 8px;&quot;&gt;10.0.0.2&lt;/font&gt;&lt;/pre&gt;" style="text;html=1;align=center;verticalAlign=middle;whiteSpace=wrap;rounded=0;" parent="1" vertex="1">
          <mxGeometry x="424" y="564" width="60" height="30" as="geometry" />
        </mxCell>
        <mxCell id="RO7NXUbX2Oa07JmIQVYZ-53" value="&lt;div align=&quot;left&quot;&gt;&lt;pre style=&quot;font-size: 8px;&quot;&gt;&lt;font style=&quot;font-size: 8px;&quot;&gt;202.206.129.254&lt;br&gt;&lt;font style=&quot;font-size: 8px;&quot;&gt;&amp;lt;pre&amp;gt;:7001:ffff:ffff:ffff:fffe&lt;/font&gt;&lt;/font&gt;&lt;/pre&gt;&lt;/div&gt;" style="text;html=1;align=left;verticalAlign=middle;whiteSpace=wrap;rounded=0;" parent="1" vertex="1">
          <mxGeometry x="506" y="399" width="60" height="30" as="geometry" />
        </mxCell>
        <mxCell id="RO7NXUbX2Oa07JmIQVYZ-54" value="&lt;div align=&quot;left&quot;&gt;&lt;pre style=&quot;font-size: 8px;&quot;&gt;&lt;font style=&quot;font-size: 8px;&quot;&gt;172.17.75.205&lt;br&gt;&lt;/font&gt;&lt;font style=&quot;font-size: 8px;&quot;&gt;&amp;lt;pre&amp;gt;:7002:ffff:ffff:ffff:ffff&lt;/font&gt;&lt;/pre&gt;&lt;/div&gt;" style="text;html=1;align=left;verticalAlign=middle;whiteSpace=wrap;rounded=0;" parent="1" vertex="1">
          <mxGeometry x="216" y="386" width="60" height="30" as="geometry" />
        </mxCell>
        <mxCell id="RO7NXUbX2Oa07JmIQVYZ-55" value="&lt;div align=&quot;left&quot;&gt;&lt;pre style=&quot;font-size: 8px;&quot;&gt;&lt;font style=&quot;font-size: 8px;&quot;&gt;172.17.75.206&lt;br&gt;&amp;lt;pre&amp;gt;:7002:ffff:ffff:ffff:fffe&lt;/font&gt;&lt;/pre&gt;&lt;/div&gt;" style="text;html=1;align=left;verticalAlign=middle;whiteSpace=wrap;rounded=0;" parent="1" vertex="1">
          <mxGeometry x="510" y="509" width="60" height="30" as="geometry" />
        </mxCell>
        <mxCell id="RO7NXUbX2Oa07JmIQVYZ-56" value="&lt;pre style=&quot;font-size: 8px;&quot;&gt;&lt;font style=&quot;font-size: 8px;&quot;&gt;202.206.128.1&lt;br&gt;&amp;lt;pre&amp;gt;:7001::1&lt;/font&gt;&lt;/pre&gt;" style="text;html=1;align=center;verticalAlign=middle;whiteSpace=wrap;rounded=0;" parent="1" vertex="1">
          <mxGeometry x="244" y="679" width="60" height="30" as="geometry" />
        </mxCell>
        <mxCell id="RO7NXUbX2Oa07JmIQVYZ-57" value="&lt;pre style=&quot;font-size: 8px;&quot;&gt;&lt;font style=&quot;font-size: 8px;&quot;&gt;172.17.75.193&lt;br&gt;&amp;lt;pre&amp;gt;:7002::1&lt;/font&gt;&lt;/pre&gt;" style="text;html=1;align=center;verticalAlign=middle;whiteSpace=wrap;rounded=0;" parent="1" vertex="1">
          <mxGeometry x="584" y="678" width="60" height="30" as="geometry" />
        </mxCell>
        <mxCell id="RO7NXUbX2Oa07JmIQVYZ-58" value="&lt;pre style=&quot;font-size: 8px;&quot;&gt;&lt;font style=&quot;font-size: 8px;&quot;&gt;202.206.130.33&lt;br&gt;&amp;lt;pre&amp;gt;:7004::1&lt;/font&gt;&lt;/pre&gt;" style="text;html=1;align=center;verticalAlign=middle;whiteSpace=wrap;rounded=0;" parent="1" vertex="1">
          <mxGeometry x="471" y="601.5" width="60" height="30" as="geometry" />
        </mxCell>
        <mxCell id="RO7NXUbX2Oa07JmIQVYZ-59" value="&lt;pre style=&quot;font-size: 8px;&quot;&gt;&lt;font style=&quot;font-size: 8px;&quot;&gt;202.206.130.34&lt;br&gt;&amp;lt;pre&amp;gt;:7004::2&lt;/font&gt;&lt;/pre&gt;" style="text;html=1;align=center;verticalAlign=middle;whiteSpace=wrap;rounded=0;" parent="1" vertex="1">
          <mxGeometry x="510" y="653" width="60" height="30" as="geometry" />
        </mxCell>
        <mxCell id="RO7NXUbX2Oa07JmIQVYZ-61" value="&lt;pre style=&quot;font-size: 8px;&quot;&gt;&lt;font style=&quot;font-size: 8px;&quot;&gt;202.206.130.37&lt;br&gt;&amp;lt;pre&amp;gt;:7005::1&lt;/font&gt;&lt;/pre&gt;" style="text;html=1;align=center;verticalAlign=middle;whiteSpace=wrap;rounded=0;" parent="1" vertex="1">
          <mxGeometry x="320" y="601.5" width="60" height="30" as="geometry" />
        </mxCell>
        <mxCell id="RO7NXUbX2Oa07JmIQVYZ-62" value="&lt;pre style=&quot;font-size: 8px;&quot;&gt;&lt;font style=&quot;font-size: 8px;&quot;&gt;202.206.130.38&lt;br&gt;&amp;lt;pre&amp;gt;:7005::2&lt;/font&gt;&lt;/pre&gt;" style="text;html=1;align=center;verticalAlign=middle;whiteSpace=wrap;rounded=0;" parent="1" vertex="1">
          <mxGeometry x="315" y="653" width="60" height="30" as="geometry" />
        </mxCell>
        <mxCell id="RO7NXUbX2Oa07JmIQVYZ-63" value="&lt;pre style=&quot;font-size: 8px;&quot;&gt;&lt;font style=&quot;font-size: 8px;&quot;&gt;202.206.130.42&lt;br&gt;&lt;/font&gt;&lt;font style=&quot;font-size: 8px;&quot;&gt;&amp;lt;pre&amp;gt;:7006::2&lt;/font&gt;&lt;/pre&gt;" style="text;html=1;align=center;verticalAlign=middle;whiteSpace=wrap;rounded=0;" parent="1" vertex="1">
          <mxGeometry x="395.5" y="709" width="60" height="30" as="geometry" />
        </mxCell>
        <mxCell id="RO7NXUbX2Oa07JmIQVYZ-64" value="&lt;pre style=&quot;font-size: 8px;&quot;&gt;&lt;font style=&quot;font-size: 8px;&quot;&gt;202.206.130.41&lt;br&gt;&amp;lt;pre&amp;gt;:7006::1&lt;/font&gt;&lt;/pre&gt;" style="text;html=1;align=center;verticalAlign=middle;whiteSpace=wrap;rounded=0;" parent="1" vertex="1">
          <mxGeometry x="434" y="675" width="60" height="30" as="geometry" />
        </mxCell>
      </root>
    </mxGraphModel>
  </diagram>
</mxfile>
